<svg width="53" height="104" viewBox="0 0 53 104" fill="none" xmlns="http://www.w3.org/2000/svg">
<path fill-rule="evenodd" clip-rule="evenodd" d="M30.8838 38.8426C28.7367 37.8051 23.2366 35.8835 23.2366 26.7264C23.2366 17.5694 36.5642 -1.92571 44.006 1.2202C51.4477 4.36612 48.2338 28.0227 44.006 34.7755C39.7781 41.5284 33.0308 39.88 30.8838 38.8426Z" fill="#C5DDF0"/>
<path d="M27.0028 82.984H26.4568C26.4568 53.1104 31.3047 28.8247 41.0062 10.1304L41.4763 10.4462C31.8292 29.0358 27.0028 53.2139 27.0028 82.984Z" fill="#7297C4"/>
<path fill-rule="evenodd" clip-rule="evenodd" d="M20.1858 60.8443C23.72 59.1898 28.7658 52.5811 25.0965 43.1715C21.4271 33.7618 8.45053 21.9776 2.33534 28.0242C-3.77986 34.0708 3.61541 53.9103 7.43008 58.5543C11.2447 63.1984 16.6516 62.4989 20.1858 60.8443Z" fill="#C5DDF0"/>
<path d="M22.7766 82.9856L22.2306 82.9825C22.314 64.2036 17.8699 49.1951 8.90222 37.9412L9.30672 37.5239C18.3719 48.9002 22.8606 64.0593 22.7766 82.9856Z" fill="#7297C4"/>
<path fill-rule="evenodd" clip-rule="evenodd" d="M34.9931 66.7722C33.0086 65.0753 30.0484 62.7932 32.6441 55.2215C35.2399 47.6499 46.9103 40.1648 50.7932 44.3983C54.6761 48.6318 50.0735 63.1616 45.657 67.1113C41.2405 71.061 36.9776 68.4691 34.9931 66.7722Z" fill="#C5DDF0"/>
<path d="M31.798 83.0384L31.2605 82.9294C33.4501 68.9472 38.1919 57.8006 45.4874 49.4985L45.8735 49.9378C38.6614 58.145 33.969 69.1756 31.798 83.0384Z" fill="#7297C4"/>
<path fill-rule="evenodd" clip-rule="evenodd" d="M12.7349 79.1724H42.1029V93.9213C42.1029 99.0907 37.9123 103.281 32.7429 103.281H22.0949C16.9255 103.281 12.7349 99.0907 12.7349 93.9213V79.1724Z" fill="url(#paint0_linear_4_59384)"/>
<mask id="mask0_4_59384" style="mask-type:luminance" maskUnits="userSpaceOnUse" x="12" y="79" width="31" height="25">
<path fill-rule="evenodd" clip-rule="evenodd" d="M12.7349 79.1724H42.1029V93.9213C42.1029 99.0907 37.9123 103.281 32.7429 103.281H22.0949C16.9255 103.281 12.7349 99.0907 12.7349 93.9213V79.1724Z" fill="white"/>
</mask>
<g mask="url(#mask0_4_59384)">
<path d="M11.5408 84.1163V83.4951H42.7808V84.1163H11.5408Z" fill="#7297C4"/>
<path d="M11.5408 88.2628V87.6416H42.7808V88.2628H11.5408Z" fill="#7297C4"/>
</g>
<defs>
<linearGradient id="paint0_linear_4_59384" x1="13.4169" y1="62.0106" x2="-18.8849" y2="111.055" gradientUnits="userSpaceOnUse">
<stop stop-color="#CBDDEE"/>
<stop offset="1" stop-color="#B8D0E6"/>
<stop offset="1" stop-color="#B8D0E6"/>
</linearGradient>
</defs>
</svg>
