<svg width="85" height="83" viewBox="0 0 85 83" fill="none" xmlns="http://www.w3.org/2000/svg">
<rect y="34.9058" width="84.15" height="47.872" fill="url(#paint0_linear_4_59401)"/>
<mask id="mask0_4_59401" style="mask-type:luminance" maskUnits="userSpaceOnUse" x="0" y="34" width="85" height="49">
<rect y="34.9058" width="84.15" height="47.872" fill="white"/>
</mask>
<g mask="url(#mask0_4_59401)">
<rect opacity="0.3" width="100.298" height="25.7486" transform="matrix(0.8358 -0.549034 0.452511 0.891759 33.66 102.493)" fill="white"/>
<path d="M45.3115 56.5796C44.7753 56.5796 44.3406 56.085 44.3406 55.4749C44.3406 54.8647 44.7753 54.3701 45.3115 54.3701H63.3437C63.8799 54.3701 64.3146 54.8647 64.3146 55.4749C64.3146 56.085 63.8799 56.5796 63.3437 56.5796H45.3115Z" fill="white"/>
<path opacity="0.15" fill-rule="evenodd" clip-rule="evenodd" d="M0 34.9058H23.9504V83.5143H0V34.9058Z" fill="#001D4B"/>
<path fill-rule="evenodd" clip-rule="evenodd" d="M-14.329 81.3049C-14.329 91.4737 -7.08374 99.7172 1.85371 99.7172C10.7912 99.7172 18.0364 91.4737 18.0364 81.3049C18.0364 71.136 10.7912 62.8926 1.85371 62.8926C-7.08374 62.8926 -14.329 71.136 -14.329 81.3049ZM11.5633 81.3049C11.5633 87.4062 7.21618 92.3523 1.85371 92.3523C-3.50876 92.3523 -7.8559 87.4062 -7.8559 81.3049C-7.8559 75.2036 -3.50876 70.2575 1.85371 70.2575C7.21618 70.2575 11.5633 75.2036 11.5633 81.3049Z" fill="#E0987C"/>
<path d="M0 44.6775V43.8071H84.15V44.6775H0Z" fill="#D33234"/>
</g>
<rect x="11.9" y="0.364258" width="60.9396" height="34.6678" fill="url(#paint1_linear_4_59401)"/>
<mask id="mask1_4_59401" style="mask-type:luminance" maskUnits="userSpaceOnUse" x="11" y="0" width="62" height="36">
<rect x="11.9" y="0.364258" width="60.9396" height="34.6678" fill="white"/>
</mask>
<g mask="url(#mask1_4_59401)">
<path d="M44.0626 17.4822H59.7254" stroke="#0069D5" stroke-width="1.95319" stroke-linecap="round" stroke-linejoin="round"/>
<path opacity="0.12" fill-rule="evenodd" clip-rule="evenodd" d="M11.9 0.364258H29.8954V35.5655H11.9V0.364258Z" fill="#001D4B"/>
<path opacity="0.3" fill-rule="evenodd" clip-rule="evenodd" d="M16.3273 27.6984C17.0464 27.6984 17.6294 27.0351 17.6294 26.2169C17.6294 25.3987 17.0464 24.7354 16.3273 24.7354C15.6081 24.7354 15.0251 25.3987 15.0251 26.2169C15.0251 27.0351 15.6081 27.6984 16.3273 27.6984ZM16.3273 32.143C17.0464 32.143 17.6294 31.4797 17.6294 30.6615C17.6294 29.8433 17.0464 29.1799 16.3273 29.1799C15.6081 29.1799 15.0251 29.8433 15.0251 30.6615C15.0251 31.4797 15.6081 32.143 16.3273 32.143ZM20.8847 32.143C21.6039 32.143 22.1868 31.4797 22.1868 30.6615C22.1868 29.8433 21.6039 29.1799 20.8847 29.1799C20.1656 29.1799 19.5826 29.8433 19.5826 30.6615C19.5826 31.4797 20.1656 32.143 20.8847 32.143ZM26.7443 30.6615C26.7443 31.4797 26.1613 32.143 25.4422 32.143C24.723 32.143 24.14 31.4797 24.14 30.6615C24.14 29.8433 24.723 29.1799 25.4422 29.1799C26.1613 29.1799 26.7443 29.8433 26.7443 30.6615ZM22.1868 26.2169C22.1868 27.0351 21.6039 27.6984 20.8847 27.6984C20.1656 27.6984 19.5826 27.0351 19.5826 26.2169C19.5826 25.3987 20.1656 24.7354 20.8847 24.7354C21.6039 24.7354 22.1868 25.3987 22.1868 26.2169ZM25.4422 27.6984C26.1613 27.6984 26.7443 27.0351 26.7443 26.2169C26.7443 25.3987 26.1613 24.7354 25.4422 24.7354C24.723 24.7354 24.14 25.3987 24.14 26.2169C24.14 27.0351 24.723 27.6984 25.4422 27.6984Z" fill="white"/>
<path d="M11.9 8.12574V7.60721H72.8396V8.12574H11.9Z" fill="#0069D5"/>
</g>
<defs>
<linearGradient id="paint0_linear_4_59401" x1="110.854" y1="57.8439" x2="50.703" y2="1.88445" gradientUnits="userSpaceOnUse">
<stop stop-color="#FFB966"/>
<stop offset="1" stop-color="#FF895F"/>
<stop offset="1" stop-color="#FF895F"/>
</linearGradient>
<linearGradient id="paint1_linear_4_59401" x1="94.9659" y1="25.0539" x2="74.4076" y2="-11.3429" gradientUnits="userSpaceOnUse">
<stop stop-color="#85D4FF"/>
<stop offset="1" stop-color="#51A4FF"/>
</linearGradient>
</defs>
</svg>
